<?xml version="1.0" encoding="utf-8"?>
<!-- Generator: Adobe Illustrator 26.0.0, SVG Export Plug-In . SVG Version: 6.00 Build 0)  -->
<svg version="1.1" id="Capa_1" xmlns="http://www.w3.org/2000/svg" xmlns:xlink="http://www.w3.org/1999/xlink" x="0px" y="0px"
	 viewBox="0 0 278.94 162.91" style="enable-background:new 0 0 278.94 162.91;" xml:space="preserve">
<style type="text/css">
	.st0{fill:url(#SVGID_1_);}
	.st1{fill:url(#SVGID_00000150806765204578060140000007891186580566203551_);}
	.st2{fill:none;}
	.st3{fill:url(#SVGID_00000000186210009647931210000015372973545690901894_);}
	.st4{fill:url(#SVGID_00000124847935193721658350000012109527731468846259_);}
	.st5{fill:url(#SVGID_00000090981016924501714080000011347135591218295462_);}
	.st6{fill:url(#SVGID_00000045608907563807702300000013724867407636920988_);}
	.st7{fill:url(#SVGID_00000150813187699441168480000014639782597782844340_);}
	.st8{fill:url(#SVGID_00000136371155380040624630000015800212064565086633_);}
	.st9{fill:url(#SVGID_00000001646980294970721360000017387251232690594731_);}
	.st10{fill:url(#SVGID_00000108273106192534053330000004498328137966502335_);}
	.st11{fill:url(#SVGID_00000067225313553874109990000010330531786829571210_);}
	.st12{fill:url(#SVGID_00000025405670862702362350000013609303595002731165_);}
	.st13{fill:url(#SVGID_00000068663089855817448690000006647284065187168692_);}
	.st14{fill:url(#SVGID_00000071539174791653085660000008812501207750402179_);}
	.st15{fill:url(#SVGID_00000049934334453993236740000016176743592459686566_);}
	.st16{fill:url(#SVGID_00000112634596295230636170000007919912425580958906_);}
	.st17{fill:url(#SVGID_00000160156473786039584910000002429836467800029064_);}
	.st18{fill:url(#SVGID_00000088812521242224324020000014618072136863241901_);}
	.st19{fill:url(#SVGID_00000129186704251967029580000005170641674190198409_);}
</style>
<linearGradient id="SVGID_1_" gradientUnits="userSpaceOnUse" x1="19.0296" y1="37.1807" x2="107.7379" y2="115.5556">
	<stop  offset="0" style="stop-color:#158891"/>
	<stop  offset="0.5046" style="stop-color:#4BBAC9"/>
	<stop  offset="1" style="stop-color:#2C9BA6"/>
</linearGradient>
<path class="st0" d="M113.94,88.38v17.64c0,3.66-2.97,6.63-6.63,6.63H62.58v-8.28h40.9c1.2,0,2.18-0.97,2.18-2.18v-9.99
	c0-1.2-0.97-2.18-2.18-2.18H80.72c-3.67,0-6.64-2.97-6.64-6.64V70.95c0-3.67,2.97-6.64,6.64-6.64l39.56,0
	c2.54,0,4.33-2.57,3.38-4.92c-10.97-27.15-41.59-44.24-74.22-33.71c-17.3,5.59-31.01,19.38-36.43,36.73
	c-6.18,19.81-2.29,38.77,7.8,53.04l0,12.25c-11.5-12-18.59-28.29-18.59-46.24C2.22,44.6,32.11,14.71,69,14.71
	c28.26,0,52.41,17.56,62.15,42.36c2.93,7.45-2.48,15.53-10.49,15.53l-36.12,0c-1.2,0-2.18,0.97-2.18,2.18v4.79
	c0,1.2,0.97,2.18,2.18,2.18h22.76C110.97,81.74,113.94,84.71,113.94,88.38z"/>
<linearGradient id="SVGID_00000142887057650728402550000015395058793531931268_" gradientUnits="userSpaceOnUse" x1="22.9137" y1="50.9488" x2="111.1293" y2="134.1167">
	<stop  offset="0" style="stop-color:#995415"/>
	<stop  offset="0.266" style="stop-color:#F59913"/>
	<stop  offset="0.5895" style="stop-color:#995415"/>
	<stop  offset="0.8557" style="stop-color:#F59913"/>
</linearGradient>
<path style="fill:url(#SVGID_00000142887057650728402550000015395058793531931268_);" d="M135.76,80.89
	c0.32,37.16-29.69,67.36-66.75,67.36c-11.44,0-22.22-2.88-31.63-7.95l0,0c-5.11-2.76-8.29-8.1-8.29-13.9V44.41h8.29v19.88h25.2
	V44.41h8.28v53.54h-8.28V72.56h-25.2l0,54.01c0,2.96,1.59,5.72,4.21,7.1c11.89,6.25,26.19,8.58,41.15,5.2
	c26.68-6.03,45.21-30.39,45.21-57.74v-0.25L135.76,80.89C135.75,80.88,135.75,80.88,135.76,80.89z"/>
<path class="st2" d="M189.42,63.21c1.08,1.93,3.12,2.9,6.1,2.9c3,0,5.03-0.97,6.12-2.9c1.08-1.93,1.62-5.17,1.62-9.73V53.3
	c-0.02-4.46-0.57-7.69-1.66-9.73c-1.08-2.07-3.12-3.1-6.08-3.1c-2.94,0-4.95,1.03-6.08,3.1c-1.07,2.03-1.64,5.27-1.66,9.73v0.18
	C187.79,58.04,188.34,61.27,189.42,63.21z"/>
<g>
	
		<linearGradient id="SVGID_00000039096168725959766500000000065950638761833910_" gradientUnits="userSpaceOnUse" x1="159.0621" y1="31.7388" x2="158.5953" y2="54.8542">
		<stop  offset="0.4804" style="stop-color:#F59913"/>
		<stop  offset="0.8411" style="stop-color:#B46816"/>
		<stop  offset="1" style="stop-color:#995415"/>
	</linearGradient>
	<polygon style="fill:url(#SVGID_00000039096168725959766500000000065950638761833910_);" points="165.81,49.87 151.84,49.87 
		151.84,34.52 144.21,34.52 144.21,53.3 173.42,53.3 173.42,34.52 165.81,34.52 	"/>
	
		<linearGradient id="SVGID_00000077310282680190559210000014483466586282126732_" gradientUnits="userSpaceOnUse" x1="195.9443" y1="32.4838" x2="195.4774" y2="55.5992">
		<stop  offset="0.4804" style="stop-color:#F59913"/>
		<stop  offset="0.8411" style="stop-color:#B46816"/>
		<stop  offset="1" style="stop-color:#995415"/>
	</linearGradient>
	<path style="fill:url(#SVGID_00000077310282680190559210000014483466586282126732_);" d="M195.52,33.85
		c-5.7,0-9.73,1.62-12.05,4.83c-2.33,3.2-3.49,8.07-3.51,14.62h7.83c0.02-4.46,0.59-7.69,1.66-9.73c1.12-2.07,3.14-3.1,6.08-3.1
		c2.96,0,4.99,1.03,6.08,3.1c1.08,2.03,1.64,5.27,1.66,9.73h7.85c-0.02-6.55-1.18-11.42-3.51-14.62
		C205.26,35.47,201.24,33.85,195.52,33.85z"/>
	
		<linearGradient id="SVGID_00000076586273765333690560000002341845908430178213_" gradientUnits="userSpaceOnUse" x1="221.6494" y1="33.0031" x2="221.1826" y2="56.1186">
		<stop  offset="0.4804" style="stop-color:#F59913"/>
		<stop  offset="0.8411" style="stop-color:#B46816"/>
		<stop  offset="1" style="stop-color:#995415"/>
	</linearGradient>
	
		<rect x="217.61" y="34.52" style="fill:url(#SVGID_00000076586273765333690560000002341845908430178213_);" width="7.63" height="18.78"/>
	
		<linearGradient id="SVGID_00000045578985104329775270000012114842824439362197_" gradientUnits="userSpaceOnUse" x1="256.6304" y1="33.8233" x2="256.1663" y2="56.8064">
		<stop  offset="0.4804" style="stop-color:#F59913"/>
		<stop  offset="0.8411" style="stop-color:#B46816"/>
		<stop  offset="1" style="stop-color:#995415"/>
	</linearGradient>
	<path style="fill:url(#SVGID_00000045578985104329775270000012114842824439362197_);" d="M255.91,40.82h0.64
		c0.59,0,1.1,0.41,1.23,0.99l2.45,11.5h7.48l-3.03-13.42c-0.71-3.14-3.49-5.36-6.71-5.36h-3.46c-3.22,0-6.01,2.23-6.71,5.37
		l-3.01,13.41h7.46l2.45-11.5C254.81,41.23,255.32,40.82,255.91,40.82z"/>
</g>
<g>
	
		<linearGradient id="SVGID_00000143598077681831822510000013753029828832136636_" gradientUnits="userSpaceOnUse" x1="158.8162" y1="72.9552" x2="158.8162" y2="44.0024">
		<stop  offset="0.4022" style="stop-color:#F59913"/>
		<stop  offset="0.5269" style="stop-color:#CA7916"/>
		<stop  offset="0.651" style="stop-color:#AF6416"/>
		<stop  offset="0.7682" style="stop-color:#9F5816"/>
		<stop  offset="0.8715" style="stop-color:#995415"/>
	</linearGradient>
	<polygon style="fill:url(#SVGID_00000143598077681831822510000013753029828832136636_);" points="144.21,72.08 151.84,72.08 
		151.84,56.5 165.81,56.5 165.81,72.08 173.42,72.08 173.42,53.3 144.21,53.3 	"/>
	
		<linearGradient id="SVGID_00000109730857281945955990000014357823995851379867_" gradientUnits="userSpaceOnUse" x1="195.5279" y1="72.9552" x2="195.5279" y2="44.0024">
		<stop  offset="0.4022" style="stop-color:#F59913"/>
		<stop  offset="0.5269" style="stop-color:#CA7916"/>
		<stop  offset="0.651" style="stop-color:#AF6416"/>
		<stop  offset="0.7682" style="stop-color:#9F5816"/>
		<stop  offset="0.8715" style="stop-color:#995415"/>
	</linearGradient>
	<path style="fill:url(#SVGID_00000109730857281945955990000014357823995851379867_);" d="M203.25,53.48c0,4.56-0.53,7.79-1.62,9.73
		c-1.09,1.93-3.12,2.9-6.12,2.9c-2.98,0-5.01-0.97-6.1-2.9c-1.08-1.93-1.64-5.17-1.64-9.73V53.3h-7.83v0.16
		c0,6.63,1.16,11.5,3.51,14.62c2.33,3.1,6.35,4.66,12.05,4.66c5.72,0,9.75-1.56,12.07-4.66c2.35-3.12,3.51-7.99,3.51-14.62V53.3
		h-7.85V53.48z"/>
	
		<linearGradient id="SVGID_00000043430686848176193000000001394652379787558319_" gradientUnits="userSpaceOnUse" x1="228.3039" y1="72.9552" x2="228.3039" y2="44.0024">
		<stop  offset="0.4022" style="stop-color:#F59913"/>
		<stop  offset="0.5269" style="stop-color:#CA7916"/>
		<stop  offset="0.651" style="stop-color:#AF6416"/>
		<stop  offset="0.7682" style="stop-color:#9F5816"/>
		<stop  offset="0.8715" style="stop-color:#995415"/>
	</linearGradient>
	<path style="fill:url(#SVGID_00000043430686848176193000000001394652379787558319_);" d="M225.25,53.3h-7.63v11.55
		c0,3.99,3.24,7.23,7.23,7.23H239v-6.75H228.1c-1.58,0-2.86-1.28-2.86-2.86V53.3z"/>
	
		<linearGradient id="SVGID_00000173128263916679276040000012350754715166396306_" gradientUnits="userSpaceOnUse" x1="256.2272" y1="72.9552" x2="256.2272" y2="44.0024">
		<stop  offset="0.4022" style="stop-color:#F59913"/>
		<stop  offset="0.5269" style="stop-color:#CA7916"/>
		<stop  offset="0.651" style="stop-color:#AF6416"/>
		<stop  offset="0.7682" style="stop-color:#9F5816"/>
		<stop  offset="0.8715" style="stop-color:#995415"/>
	</linearGradient>
	<polygon style="fill:url(#SVGID_00000173128263916679276040000012350754715166396306_);" points="267.7,53.3 260.22,53.3 
		261.37,58.65 251.09,58.65 252.23,53.3 244.78,53.3 240.53,72.08 248.17,72.08 249.65,65.28 262.81,65.28 264.29,72.08 
		271.92,72.08 	"/>
</g>
<g>
	
		<linearGradient id="SVGID_00000018211508360147119550000003939835862206464158_" gradientUnits="userSpaceOnUse" x1="158.22" y1="77.7501" x2="158.22" y2="102.967">
		<stop  offset="0" style="stop-color:#4BBAC9"/>
		<stop  offset="0.8001" style="stop-color:#21929C"/>
		<stop  offset="1" style="stop-color:#158891"/>
	</linearGradient>
	<path style="fill:url(#SVGID_00000018211508360147119550000003939835862206464158_);" d="M162.42,97.94
		c-4.46-1.44-7.28-2.53-8.5-3.29c-1.2-0.75-1.8-1.85-1.8-3.27c0-3.22,2.43-4.83,7.3-4.83c2.6,0,7.04,0.36,13.36,1.07l0.73-7.3
		l-2.41-0.47c-5.11-0.89-9.31-1.34-12.61-1.34c-4.83,0-8.64,1.12-11.4,3.35c-2.78,2.23-4.16,5.64-4.16,10.2
		c0,3.61,1.07,6.45,3.18,8.48c0.73,0.69,1.62,1.34,2.7,1.97h22.65C169.62,100.82,166.6,99.3,162.42,97.94z"/>
	
		<linearGradient id="SVGID_00000178171476651657470000000006391837572232889236_" gradientUnits="userSpaceOnUse" x1="186.5217" y1="77.7501" x2="186.5217" y2="102.967">
		<stop  offset="0" style="stop-color:#4BBAC9"/>
		<stop  offset="0.8001" style="stop-color:#21929C"/>
		<stop  offset="1" style="stop-color:#158891"/>
	</linearGradient>
	
		<rect x="181.9" y="79.3" style="fill:url(#SVGID_00000178171476651657470000000006391837572232889236_);" width="9.25" height="23.2"/>
	
		<linearGradient id="SVGID_00000008862707076333953900000008069121885796137383_" gradientUnits="userSpaceOnUse" x1="213.8961" y1="77.7501" x2="213.8961" y2="102.967">
		<stop  offset="0" style="stop-color:#4BBAC9"/>
		<stop  offset="0.8001" style="stop-color:#21929C"/>
		<stop  offset="1" style="stop-color:#158891"/>
	</linearGradient>
	<path style="fill:url(#SVGID_00000008862707076333953900000008069121885796137383_);" d="M218.1,97.94
		c-4.46-1.44-7.28-2.53-8.5-3.29c-1.2-0.75-1.8-1.85-1.8-3.27c0-3.22,2.43-4.83,7.3-4.83c2.6,0,7.04,0.36,13.36,1.07l0.73-7.3
		l-2.41-0.47c-5.11-0.89-9.31-1.34-12.61-1.34c-4.83,0-8.64,1.12-11.4,3.35c-2.78,2.23-4.16,5.64-4.16,10.2
		c0,3.61,1.07,6.45,3.18,8.48c0.73,0.69,1.62,1.34,2.7,1.97h22.65C225.3,100.82,222.28,99.3,218.1,97.94z"/>
	
		<linearGradient id="SVGID_00000165942269969485118220000004611640352191257772_" gradientUnits="userSpaceOnUse" x1="241.8031" y1="77.7501" x2="241.8031" y2="102.967">
		<stop  offset="0" style="stop-color:#4BBAC9"/>
		<stop  offset="0.8001" style="stop-color:#21929C"/>
		<stop  offset="1" style="stop-color:#158891"/>
	</linearGradient>
	
		<rect x="237.18" y="79.3" style="fill:url(#SVGID_00000165942269969485118220000004611640352191257772_);" width="9.25" height="23.2"/>
	
		<linearGradient id="SVGID_00000138533235366281665540000014319712278471217325_" gradientUnits="userSpaceOnUse" x1="267.2933" y1="77.7501" x2="267.2933" y2="102.967">
		<stop  offset="0" style="stop-color:#4BBAC9"/>
		<stop  offset="0.8001" style="stop-color:#21929C"/>
		<stop  offset="1" style="stop-color:#158891"/>
	</linearGradient>
	
		<rect x="262.67" y="79.3" style="fill:url(#SVGID_00000138533235366281665540000014319712278471217325_);" width="9.25" height="23.2"/>
</g>
<g>
	
		<linearGradient id="SVGID_00000012471237829184594460000013102143926283563448_" gradientUnits="userSpaceOnUse" x1="159.2043" y1="129.1284" x2="158.7374" y2="106.4799">
		<stop  offset="0" style="stop-color:#4BBAC9"/>
		<stop  offset="0.8001" style="stop-color:#21929C"/>
		<stop  offset="1" style="stop-color:#158891"/>
	</linearGradient>
	<path style="fill:url(#SVGID_00000012471237829184594460000013102143926283563448_);" d="M171.46,102.5h-22.65
		c2.09,1.22,4.83,2.33,8.27,3.29c3.28,0.93,5.45,1.81,6.55,2.6c1.09,0.81,1.64,1.93,1.64,3.35c0,3.95-2.37,5.92-7.1,5.92
		c-3.18,0-7.77-0.41-13.75-1.22l-0.95,7.18l2.41,0.47c5.07,1.07,9.33,1.62,12.82,1.62c4.7,0,8.5-1.24,11.4-3.69
		c2.9-2.47,4.36-6.1,4.36-10.87c0-3.77-0.91-6.55-2.68-8.36C171.68,102.69,171.58,102.6,171.46,102.5z"/>
	
		<linearGradient id="SVGID_00000029039272944518228920000014640514586440854928_" gradientUnits="userSpaceOnUse" x1="186.8279" y1="128.5589" x2="186.361" y2="105.9104">
		<stop  offset="0" style="stop-color:#4BBAC9"/>
		<stop  offset="0.8001" style="stop-color:#21929C"/>
		<stop  offset="1" style="stop-color:#158891"/>
	</linearGradient>
	
		<rect x="181.9" y="102.5" style="fill:url(#SVGID_00000029039272944518228920000014640514586440854928_);" width="9.25" height="22.41"/>
	
		<linearGradient id="SVGID_00000165922724043183434580000008881568128287354290_" gradientUnits="userSpaceOnUse" x1="214.8567" y1="127.9811" x2="214.3898" y2="105.3325">
		<stop  offset="0" style="stop-color:#4BBAC9"/>
		<stop  offset="0.8001" style="stop-color:#21929C"/>
		<stop  offset="1" style="stop-color:#158891"/>
	</linearGradient>
	<path style="fill:url(#SVGID_00000165922724043183434580000008881568128287354290_);" d="M227.13,102.5h-22.65
		c2.09,1.22,4.83,2.33,8.27,3.29c3.28,0.93,5.45,1.81,6.55,2.6c1.09,0.81,1.64,1.93,1.64,3.35c0,3.95-2.37,5.92-7.1,5.92
		c-3.18,0-7.77-0.41-13.75-1.22l-0.95,7.18l2.41,0.47c5.07,1.07,9.33,1.62,12.82,1.62c4.7,0,8.5-1.24,11.4-3.69
		c2.9-2.47,4.36-6.1,4.36-10.87c0-3.77-0.91-6.55-2.68-8.36C227.35,102.69,227.25,102.6,227.13,102.5z"/>
	
		<linearGradient id="SVGID_00000131355774911680391250000003315527343251604645_" gradientUnits="userSpaceOnUse" x1="254.9812" y1="127.1539" x2="254.5143" y2="104.5053">
		<stop  offset="0" style="stop-color:#4BBAC9"/>
		<stop  offset="0.8001" style="stop-color:#21929C"/>
		<stop  offset="1" style="stop-color:#158891"/>
	</linearGradient>
	<path style="fill:url(#SVGID_00000131355774911680391250000003315527343251604645_);" d="M262.67,109.68c0,5.33-2.7,7.99-8.13,7.99
		c-5.41,0-8.11-2.66-8.11-7.99v-7.18h-9.25v6.98c0,5.58,1.44,9.69,4.32,12.31c2.88,2.6,7.24,3.93,13.04,3.93
		c5.82,0,10.18-1.32,13.06-3.93c2.88-2.62,4.32-6.73,4.32-12.31v-6.98h-9.25V109.68z"/>
</g>
</svg>
